<svg width="69" height="80" viewBox="0 0 69 80" fill="none" xmlns="http://www.w3.org/2000/svg">
<path d="M20.8343 0.228013C20.4448 0.230521 20.0621 0.329993 19.7207 0.517448C18.5996 1.13884 18.1884 2.57911 18.8096 3.69937L21.3406 8.26974C15.2425 12.0425 11.2019 18.4871 11.2019 25.8426V27.2093C10.0306 25.8618 8.3091 25.011 6.38565 25.011C2.8614 25.011 0 27.8724 0 31.3964V51.0666C0 54.5903 2.86166 57.4519 6.38565 57.4519C8.3091 57.4519 10.0306 56.6009 11.2016 55.2534V58.0087C11.2016 61.7236 14.2413 64.763 17.9561 64.763H19.6699V73.5133C19.6699 77.0376 22.5316 79.899 26.0555 79.899C29.5795 79.899 32.4409 77.0373 32.4409 73.5133V64.763H35.406V73.5133C35.406 77.0376 38.2676 79.899 41.7916 79.899C45.3156 79.899 48.177 77.0373 48.177 73.5133V64.763H49.891C53.6056 64.763 56.6453 61.7236 56.6453 58.0087V55.2534C57.8163 56.6009 59.5381 57.4519 61.4615 57.4519C64.9855 57.4519 67.8469 54.5903 67.8469 51.0666V31.3964C67.8469 27.8724 64.9855 25.011 61.4615 25.011C59.5381 25.011 57.8163 25.8618 56.6453 27.2093V26.0739V26.0087C56.6459 25.9396 56.6453 25.8844 56.6453 25.8426C56.6453 18.4885 52.5954 12.0502 46.4994 8.27718L49.0376 3.69937C49.6585 2.57911 49.2476 1.13884 48.1265 0.517448C47.7851 0.329993 47.4024 0.230521 47.0129 0.228013C46.185 0.220039 45.3725 0.656451 44.9446 1.42854L42.2905 6.22323C39.6954 5.26562 36.8718 4.7407 33.9237 4.7407C30.9783 4.7407 28.1494 5.26004 25.5564 6.21579L22.9026 1.42854C22.4744 0.656451 21.6622 0.220571 20.8343 0.228013Z" fill="white"/>
<path d="M6.38558 26.6743C3.75594 26.6743 1.66345 28.7668 1.66345 31.3964V51.0666C1.66345 53.6962 3.75594 55.7887 6.38558 55.7887C9.01521 55.7887 11.108 53.6962 11.108 51.0666V31.3964C11.108 28.7668 9.01521 26.6743 6.38558 26.6743ZM61.4617 26.6743C58.8318 26.6743 56.7393 28.7668 56.7393 31.3964V51.0666C56.7393 53.6962 58.8318 55.7887 61.4617 55.7887C64.0914 55.7887 66.1839 53.6962 66.1839 51.0666V31.3964C66.1839 28.7668 64.0914 26.6743 61.4617 26.6743Z" fill="#A4C639"/>
<path d="M26.0555 49.121C23.4259 49.121 21.3331 51.2135 21.3331 53.8434V73.5133C21.3331 76.143 23.4259 78.2355 26.0555 78.2355C28.6852 78.2355 30.7776 76.143 30.7776 73.5133V53.8434C30.7776 51.2135 28.6852 49.121 26.0555 49.121ZM41.7916 49.121C39.1617 49.121 37.0692 51.2135 37.0692 53.8434V73.5133C37.0692 76.143 39.1617 78.2355 41.7916 78.2355C44.4212 78.2355 46.5137 76.143 46.5137 73.5133V53.8434C46.5137 51.2135 44.4212 49.121 41.7916 49.121Z" fill="#A4C639"/>
<path d="M20.8486 1.89157C20.737 1.89292 20.6275 1.92274 20.5305 1.97822C20.1938 2.1648 20.0832 2.55177 20.27 2.88931L23.5968 8.89888C17.1968 12.2291 12.8736 18.5576 12.8651 25.8209H54.9821C54.9733 18.5576 50.6504 12.2288 44.2504 8.89888L47.5769 2.88958C47.764 2.55204 47.6532 2.1648 47.3164 1.97822C47.2195 1.92271 47.11 1.89288 46.9983 1.89157C46.7591 1.88891 46.5329 2.00852 46.4053 2.23868L43.0352 8.3131C40.2785 7.09051 37.1865 6.404 33.9235 6.404C30.6605 6.404 27.5686 7.09024 24.8117 8.3131L21.4416 2.23868C21.3841 2.13205 21.2984 2.04328 21.1939 1.98206C21.0894 1.92084 20.97 1.88954 20.8489 1.89157H20.8486ZM12.8651 27.4841V58.009C12.8637 58.678 12.9944 59.3406 13.2497 59.959C13.5051 60.5773 13.88 61.139 14.3531 61.6121C14.8261 62.0851 15.3879 62.46 16.0062 62.7153C16.6245 62.9706 17.2872 63.1013 17.9562 63.0998H49.891C50.56 63.1013 51.2227 62.9706 51.841 62.7153C52.4594 62.4599 53.0212 62.085 53.4942 61.612C53.9673 61.1389 54.3422 60.5771 54.5975 59.9588C54.8529 59.3404 54.9835 58.6778 54.9821 58.0088V27.4844H12.8651V27.4841Z" fill="#A4C639"/>
<path d="M24.2041 14.5974C23.2428 14.5974 22.4468 15.3932 22.4468 16.3545C22.4468 17.3161 23.2428 18.1118 24.2041 18.1118C25.1657 18.1118 25.9615 17.3161 25.9615 16.3545C25.9615 15.3932 25.1657 14.5974 24.2041 14.5974ZM43.6428 14.5974C42.6812 14.5974 41.8854 15.3932 41.8854 16.3545C41.8854 17.3161 42.6812 18.1118 43.6428 18.1118C44.6041 18.1118 45.4001 17.3161 45.4001 16.3545C45.4001 15.3932 44.6041 14.5974 43.6428 14.5974Z" fill="white"/>
</svg>
