<svg width="80" height="80" viewBox="0 0 80 80" fill="none" xmlns="http://www.w3.org/2000/svg">
<g clip-path="url(#clip0)">
<path d="M0 0H79.6625V80H0V0Z" fill="#F7DF1E"/>
<path d="M20.9462 66.8537L27.0423 63.1487C28.2185 65.2428 29.2884 67.0147 31.8547 67.0147C34.3146 67.0147 35.8658 66.0484 35.8658 62.2897V36.7278H43.3519V62.3959C43.3519 70.1825 38.8068 73.7268 32.1755 73.7268C26.1868 73.7268 22.7106 70.6121 20.9459 66.8531" fill="black"/>
<path d="M47.4182 66.0482L53.5136 62.5041C55.1183 65.1357 57.2039 67.0688 60.8932 67.0688C63.9954 67.0688 65.9733 65.5113 65.9733 63.3632C65.9733 60.7857 63.9413 59.8725 60.5189 58.3694L58.6478 57.5632C53.2466 55.2547 49.664 52.3547 49.664 46.2329C49.664 40.5941 53.9418 36.2979 60.6262 36.2979C65.3855 36.2979 68.8078 37.9628 71.2674 42.3125L65.4384 46.0719C64.1547 43.7628 62.765 42.85 60.6259 42.85C58.4334 42.85 57.043 44.2463 57.043 46.0719C57.043 48.3272 58.4334 49.2407 61.6416 50.6369L63.5131 51.4422C69.8767 54.1813 73.4594 56.9735 73.4594 63.256C73.4594 70.0229 68.1655 73.7279 61.0535 73.7279C54.102 73.7279 49.6101 70.3985 47.4178 66.0485" fill="black"/>
</g>
<defs>
<clipPath id="clip0">
<rect width="79.6625" height="80" fill="white"/>
</clipPath>
</defs>
</svg>
