<svg width="57" height="80" viewBox="0 0 57 80" fill="none" xmlns="http://www.w3.org/2000/svg">
<g clip-path="url(#clip0)">
<path d="M56.6327 15.6823L51.4823 73.3798L28.3311 79.7979L5.24367 73.3886L0.0986328 15.6823H56.6327Z" fill="#E44D26"/>
<path d="M28.3657 74.8919L47.0731 69.7056L51.4742 20.4004H28.3657V74.8919Z" fill="#F16529"/>
<path d="M18.3534 34.5556H28.3656V27.4781H10.6187L10.788 29.3769L12.5276 48.8805H28.3656V41.803H19.0003L18.3534 34.5556Z" fill="#EBEBEB"/>
<path d="M19.9486 52.4193H12.8439L13.8353 63.532L28.3331 67.5564L28.3656 67.5475V60.184L28.3346 60.1922L20.4525 58.0639L19.9486 52.4193Z" fill="#EBEBEB"/>
<path d="M5.3584 0H8.95507V3.55346H12.2453V0H15.8422V10.7608H12.2455V7.15745H8.9553V10.7608H5.35862V0H5.3584Z" fill="black"/>
<path d="M20.5718 3.56853H17.4059V0H27.337V3.56853H24.1691V10.7608H20.5724V3.56853H20.5722H20.5718Z" fill="black"/>
<path d="M28.9131 0H32.6633L34.9703 3.78105L37.275 0H41.0268V10.7608H37.4447V5.42715L34.9703 9.25318H34.9082L32.4322 5.42715V10.7608H28.9131V0Z" fill="black"/>
<path d="M42.8166 0H46.4144V7.20399H51.4724V10.7608H42.8164V0H42.8166Z" fill="black"/>
<path d="M28.3413 48.8804H37.0564L36.2347 58.0594L28.3411 60.1899V67.553L42.8503 63.5319L42.9567 62.3362L44.6201 43.7035L44.7927 41.803H28.3413V48.8804Z" fill="white"/>
<path d="M28.3413 34.5383V34.5556H45.4367L45.5785 32.9649L45.9012 29.3769L46.0703 27.4781H28.3413V34.5385V34.5383Z" fill="white"/>
</g>
<defs>
<clipPath id="clip0">
<rect width="56.7313" height="80" fill="white"/>
</clipPath>
</defs>
</svg>
