<svg width="99" height="80" viewBox="0 0 99 80" fill="none" xmlns="http://www.w3.org/2000/svg">
<g clip-path="url(#clip0)">
<path d="M98.1395 9.74162C94.5283 11.3405 90.648 12.421 86.5752 12.9072C90.7327 10.4191 93.9249 6.47923 95.428 1.78488C91.4758 4.12664 87.1518 5.77656 82.6427 6.66334C78.9697 2.75636 73.7373 0.314636 67.9459 0.314636C56.8262 0.314636 47.8108 9.31598 47.8108 20.418C47.8108 21.9939 47.9891 23.528 48.3322 24.9998C31.5986 24.1611 16.7627 16.1577 6.83181 3.99464C5.09904 6.96382 4.10614 10.4176 4.10614 14.1014C4.10614 21.0764 7.66102 27.2295 13.0633 30.8348C9.8659 30.7348 6.73885 29.8726 3.94322 28.32C3.94207 28.4042 3.94207 28.4884 3.94207 28.573C3.94207 38.3135 10.8824 46.439 20.0929 48.2859C17.128 49.0911 14.018 49.2089 11.0004 48.6304C13.5624 56.6174 20.9984 62.4295 29.8087 62.5921C22.9179 67.9839 14.236 71.1981 4.80309 71.1981C3.17765 71.1981 1.57522 71.1028 0 70.9171C8.91038 76.6212 19.4937 79.9495 30.8641 79.9495C67.8991 79.9495 88.1508 49.3156 88.1508 22.7495C88.1508 21.8775 88.1316 21.0105 88.0925 20.1485C92.0343 17.3033 95.4365 13.7792 98.1395 9.74162Z" fill="#55ACEE"/>
</g>
<defs>
<clipPath id="clip0">
<rect width="98.1395" height="80" fill="white"/>
</clipPath>
</defs>
</svg>
