<svg width="57" height="80" viewBox="0 0 57 80" fill="none" xmlns="http://www.w3.org/2000/svg">
<g clip-path="url(#clip0)">
<path d="M28.3311 79.7979L5.24367 73.3886L0.0986328 15.6823H56.6327L51.4823 73.3798L28.3311 79.7979Z" fill="#264DE4"/>
<path d="M47.0731 69.7057L51.4742 20.4004H28.3657V74.8919L47.0731 69.7057Z" fill="#2965F1"/>
<path d="M11.8934 41.803L12.5277 48.8804H28.3657V41.803H11.8934Z" fill="#EBEBEB"/>
<path d="M10.6187 27.4781L11.262 34.5556H28.3656V27.4781H10.6187Z" fill="#EBEBEB"/>
<path d="M28.3656 60.184L28.3346 60.1922L20.4525 58.0639L19.9486 52.4193H12.8439L13.8353 63.532L28.3331 67.5564L28.3656 67.5475V60.184Z" fill="#EBEBEB"/>
<path d="M13.4037 0H21.9754V3.58471H16.9884V7.16942H21.9759V10.7539H13.4037V0Z" fill="black"/>
<path d="M23.69 0H32.262V3.11712H27.2747V3.7405H32.262V10.9099H23.6903V7.63657H28.6775V7.01319H23.6898V0H23.69Z" fill="black"/>
<path d="M33.9764 0H42.5484V3.11712H37.5611V3.7405H42.5484V10.9099H33.9764V7.63657H38.9637V7.01319H33.9767V0H33.9764Z" fill="black"/>
<path d="M44.7927 41.803L46.0703 27.4781H28.3413V34.5556H38.314L37.67 41.803H28.3413V48.8805H37.0564L36.2347 58.0594L28.3411 60.19V67.5531L42.8503 63.532L42.9567 62.3362L44.6201 43.7035L44.7927 41.803Z" fill="white"/>
</g>
<defs>
<clipPath id="clip0">
<rect width="56.7313" height="80" fill="white"/>
</clipPath>
</defs>
</svg>
