<svg width="91" height="80" viewBox="0 0 91 80" fill="none" xmlns="http://www.w3.org/2000/svg">
<g clip-path="url(#clip0)">
<path d="M74.0496 25.9032C73.0912 25.5752 72.1246 25.2714 71.1507 24.992C71.3143 24.3253 71.4649 23.6667 71.5986 23.0197C73.7932 12.3948 72.3585 3.83515 67.4582 1.0169C62.7598 -1.68485 55.0759 1.13234 47.3157 7.86813C46.5509 8.53316 45.8031 9.21735 45.073 9.92006C44.5842 9.45278 44.0867 8.99458 43.5809 8.54567C35.4478 1.34357 27.2957 -1.69187 22.4007 1.13445C17.7065 3.84462 16.3165 11.8913 18.2923 21.9608C18.4888 22.958 18.7108 23.9502 18.9579 24.9362C17.804 25.2632 16.6905 25.6113 15.6249 25.9818C6.08945 29.2976 0 34.4937 0 39.8836C0 45.4502 6.5373 51.0337 16.4688 54.4194C17.274 54.6927 18.0859 54.946 18.9037 55.179C18.6381 56.241 18.4023 57.3102 18.1966 58.3853C16.313 68.2801 17.7839 76.1366 22.4654 78.8295C27.3007 81.6106 35.4162 78.7523 43.3181 71.8629C43.9589 71.3028 44.5855 70.7268 45.1975 70.1355C45.9882 70.8964 46.8 71.6352 47.632 72.3509C55.2867 78.9201 62.8463 81.5727 67.5232 78.8723C72.3539 76.0832 73.924 67.6432 71.8857 57.3748C71.7251 56.5703 71.545 55.7699 71.3456 54.9741C71.9156 54.8057 72.4749 54.6323 73.0202 54.452C83.3451 51.0404 90.0629 45.5246 90.0629 39.8836C90.0629 34.4741 83.7768 29.2429 74.0496 25.9032ZM71.8104 50.8099C71.3178 50.9723 70.8126 51.1292 70.2976 51.2818C69.1577 47.6829 67.6196 43.8562 65.7371 39.9022C67.5334 36.0425 69.0124 32.2646 70.1203 28.6892C71.0417 28.9551 71.9356 29.2355 72.7976 29.5313C81.1319 32.393 86.2155 36.6236 86.2155 39.8836C86.2155 43.3558 80.7252 47.8636 71.8104 50.8099ZM68.1115 58.1201C69.0128 62.6604 69.1412 66.7657 68.5442 69.9751C68.008 72.859 66.9294 74.7815 65.5953 75.5516C62.7573 77.1902 56.6875 75.0604 50.1415 69.4422C49.3676 68.7767 48.6124 68.0899 47.8769 67.3825C50.4148 64.6144 52.951 61.3966 55.4263 57.8225C59.7803 57.4373 63.8936 56.8071 67.6239 55.9471C67.8075 56.6864 67.9707 57.4113 68.1115 58.1201ZM30.7044 75.2685C27.9315 76.245 25.7228 76.273 24.3877 75.5053C21.5468 73.8713 20.3658 67.5629 21.9768 59.1011C22.1682 58.1012 22.3875 57.1068 22.6343 56.119C26.3233 56.933 30.4068 57.5183 34.771 57.8713C37.2632 61.3685 39.8725 64.5829 42.5023 67.3976C41.9434 67.9369 41.3713 68.4625 40.7865 68.9737C37.292 72.0201 33.7905 74.1815 30.7044 75.2685ZM17.7135 50.7885C13.3219 49.2913 9.69513 47.3457 7.20925 45.2225C4.97527 43.3148 3.84773 41.4204 3.84773 39.8836C3.84773 36.6127 8.7368 32.4408 16.8914 29.6053C17.881 29.2615 18.9167 28.9369 19.9915 28.6323C21.1187 32.2885 22.597 36.1113 24.381 39.9769C22.5738 43.8997 21.0744 47.7836 19.9363 51.4829C19.1898 51.2696 18.4486 51.0381 17.7135 50.7885ZM22.0682 21.2236C20.3757 12.5966 21.4997 6.08883 24.3286 4.4555C27.3415 2.71585 34.004 5.1962 41.0265 11.4151C41.4844 11.8216 41.9349 12.2363 42.3778 12.659C39.761 15.4615 37.1756 18.652 34.7055 22.1285C30.4698 22.5201 26.4152 23.1488 22.6874 23.9913C22.4577 23.0742 22.2513 22.1514 22.0682 21.2239V21.2236ZM60.9173 30.7913C60.0368 29.2744 59.1237 27.7766 58.1785 26.299C61.0521 26.6615 63.8053 27.1425 66.3908 27.7306C65.6147 30.212 64.6472 32.806 63.5084 35.4657C62.676 33.8905 61.8121 32.3321 60.9173 30.7913ZM45.0747 15.4015C46.8492 17.319 48.6266 19.4597 50.3747 21.7825C46.8285 21.6155 43.2763 21.6148 39.73 21.7804C41.4799 19.479 43.2724 17.3411 45.0747 15.4015ZM29.1304 30.8176C28.2468 32.346 27.3991 33.8947 26.5879 35.4625C25.4677 32.8123 24.5091 30.2064 23.7263 27.6899C26.2959 27.1166 29.0361 26.6478 31.8914 26.292C30.9357 27.7786 30.0151 29.2875 29.1304 30.8173V30.8176ZM31.9734 53.7481C29.0235 53.4197 26.2421 52.9752 23.6732 52.4173C24.4683 49.8559 25.448 47.1944 26.5925 44.4874C27.4069 46.0564 28.2581 47.6061 29.1455 49.1351C30.0581 50.7071 31.0031 52.2467 31.9734 53.7481ZM45.181 64.6358C43.3572 62.6737 41.5383 60.5029 39.7621 58.1681C41.4866 58.2355 43.2446 58.2699 45.0314 58.2699C46.8672 58.2699 48.6818 58.2288 50.4679 58.1495C48.7142 60.5264 46.9435 62.7004 45.181 64.6358ZM63.5446 44.3492C64.7485 47.086 65.7631 49.7334 66.5688 52.2509C63.9577 52.8453 61.1383 53.3239 58.1676 53.6794C59.1195 52.1743 60.0413 50.6505 60.9325 49.1088C61.8385 47.5418 62.7094 45.9549 63.5446 44.3492ZM57.5998 47.1916C56.2355 49.5553 54.7946 51.874 53.2792 54.1443C50.5343 54.3382 47.7833 54.4345 45.0314 54.433C42.2286 54.433 39.5024 54.346 36.8772 54.1762C35.3223 51.9112 33.8539 49.5884 32.4751 47.2127H32.4754C31.1031 44.8496 29.8212 42.4353 28.6326 39.9751C29.8182 37.5144 31.0962 35.099 32.4638 32.7341L32.4635 32.7344C33.8306 30.3689 35.2873 28.056 36.8304 25.8008C39.5088 25.5987 42.2553 25.4934 45.0311 25.4934H45.0314C47.8199 25.4934 50.57 25.5997 53.2476 25.8032C54.7751 28.0551 56.2226 30.36 57.5871 32.7137C58.9593 35.0735 60.2542 37.4771 61.4697 39.9208C60.2667 42.3894 58.9759 44.8146 57.5998 47.1916ZM65.5366 4.34111C68.5523 6.07585 69.7252 13.0713 67.8304 22.245C67.7094 22.8302 67.5736 23.4264 67.4258 24.0309C63.6889 23.1706 59.6315 22.5309 55.3834 22.1334C52.9088 18.6187 50.3445 15.4232 47.7703 12.6569C48.4449 12.0083 49.1356 11.3765 49.8417 10.7622C56.4909 4.99129 62.7052 2.71269 65.5366 4.34111ZM45.0314 31.8625C49.473 31.8625 53.0738 35.4537 53.0738 39.8836C53.0738 44.3134 49.473 47.9046 45.0314 47.9046C40.5899 47.9046 36.9891 44.3134 36.9891 39.8836C36.9891 35.4537 40.5899 31.8625 45.0314 31.8625Z" fill="#00D8FF"/>
</g>
<defs>
<clipPath id="clip0">
<rect width="90.0629" height="80" fill="white"/>
</clipPath>
</defs>
</svg>
