<svg width="54" height="80" viewBox="0 0 54 80" fill="none" xmlns="http://www.w3.org/2000/svg">
<g clip-path="url(#clip0)">
<path d="M13.3333 80C20.6933 80 26.6667 74.0267 26.6667 66.6667V53.3334H13.3333C5.97333 53.3334 0 59.3067 0 66.6667C0 74.0267 5.97333 80 13.3333 80Z" fill="#0ACF83"/>
<path d="M0 40C0 32.64 5.97333 26.6667 13.3333 26.6667H26.6667V53.3334H13.3333C5.97333 53.3334 0 47.36 0 40Z" fill="#A259FF"/>
<path d="M0 13.3333C0 5.97333 5.97333 0 13.3333 0H26.6667V26.6667H13.3333C5.97333 26.6667 0 20.6933 0 13.3333Z" fill="#F24E1E"/>
<path d="M26.6667 0H40.0001C47.3601 0 53.3334 5.97333 53.3334 13.3333C53.3334 20.6933 47.3601 26.6667 40.0001 26.6667H26.6667V0Z" fill="#FF7262"/>
<path d="M53.3334 40C53.3334 47.36 47.3601 53.3334 40.0001 53.3334C32.6401 53.3334 26.6667 47.36 26.6667 40C26.6667 32.64 32.6401 26.6667 40.0001 26.6667C47.3601 26.6667 53.3334 32.64 53.3334 40Z" fill="#1ABCFE"/>
</g>
<defs>
<clipPath id="clip0">
<rect width="53.3333" height="80" fill="white"/>
</clipPath>
</defs>
</svg>
