<svg width="82" height="80" viewBox="0 0 82 80" fill="none" xmlns="http://www.w3.org/2000/svg">
<g clip-path="url(#clip0)">
<path d="M40.9603 0C18.3414 0 0 18.3382 0 40.9603C0 59.0576 11.7363 74.4115 28.0112 79.8275C30.0582 80.2067 30.8099 78.9389 30.8099 77.857C30.8099 76.8803 30.7715 73.6538 30.7542 70.2314C19.359 72.7088 16.9546 65.3984 16.9546 65.3984C15.0912 60.664 12.4064 59.4048 12.4064 59.4048C8.69024 56.8627 12.6867 56.9152 12.6867 56.9152C16.7997 57.2038 18.9654 61.136 18.9654 61.136C22.6189 67.3978 28.5478 65.5875 30.8851 64.5408C31.2528 61.8938 32.3142 60.0864 33.4858 59.0637C24.3878 58.0282 14.824 54.5158 14.824 38.8211C14.824 34.3491 16.424 30.695 19.0442 27.8266C18.6189 26.7949 17.217 22.6291 19.441 16.9869C19.441 16.9869 22.8806 15.8861 30.7082 21.1856C33.9754 20.2781 37.4794 19.823 40.9603 19.8074C44.4413 19.823 47.9482 20.2778 51.2214 21.1856C59.0394 15.8864 62.4742 16.9872 62.4742 16.9872C64.7037 22.6288 63.3011 26.7952 62.8758 27.8266C65.5021 30.695 67.0912 34.3491 67.0912 38.8211C67.0912 54.5533 57.5091 58.0173 48.3882 59.0314C49.8573 60.3024 51.1664 62.7952 51.1664 66.6166C51.1664 72.097 51.119 76.5078 51.119 77.857C51.119 78.9472 51.8563 80.2243 53.9325 79.8218C70.1984 74.4 81.92 59.0518 81.92 40.9606C81.92 18.3382 63.5811 0 40.9603 0ZM15.3411 58.3488C15.2509 58.5523 14.9306 58.6134 14.639 58.4736C14.3418 58.3402 14.175 58.0627 14.271 57.8586C14.3594 57.649 14.6803 57.5904 14.9766 57.7309C15.2742 57.8646 15.4438 58.1446 15.3411 58.3488ZM17.3558 60.1466C17.1606 60.3277 16.7786 60.2435 16.5194 59.9574C16.2515 59.672 16.2013 59.2899 16.3994 59.1062C16.601 58.9251 16.9712 59.0099 17.2397 59.2954C17.5078 59.5843 17.5597 59.9635 17.3558 60.1466ZM18.7382 62.4467C18.487 62.6211 18.0768 62.4576 17.823 62.0934C17.5722 61.7293 17.5722 61.2925 17.8285 61.1174C18.0829 60.9424 18.487 61.0998 18.744 61.4614C18.9942 61.8317 18.9942 62.2685 18.7379 62.447L18.7382 62.4467ZM21.0755 65.1107C20.8512 65.3584 20.3728 65.2918 20.0227 64.9539C19.6646 64.6237 19.5651 64.1552 19.7904 63.9075C20.0176 63.6592 20.4986 63.729 20.8512 64.0643C21.2064 64.3939 21.3152 64.8659 21.0755 65.1107ZM24.097 66.0099C23.9978 66.3309 23.537 66.4768 23.0733 66.3405C22.6099 66.2 22.3069 65.8243 22.4003 65.5002C22.4966 65.177 22.9594 65.0253 23.4266 65.1712C23.8893 65.3107 24.1933 65.6838 24.097 66.0102V66.0099ZM27.535 66.3917C27.5466 66.7293 27.1533 67.0093 26.6662 67.0157C26.1766 67.0266 25.7802 66.7533 25.7747 66.4205C25.7747 66.0797 26.1594 65.8022 26.6493 65.7939C27.1363 65.7843 27.535 66.0557 27.535 66.3917ZM30.9126 66.2621C30.9709 66.5917 30.6326 66.9302 30.1488 67.0205C29.6736 67.1072 29.2333 66.9037 29.1728 66.577C29.1139 66.239 29.4586 65.9005 29.9331 65.8131C30.4176 65.729 30.8509 65.927 30.9126 66.2621Z" fill="#161614"/>
</g>
<defs>
<clipPath id="clip0">
<rect width="81.92" height="80" fill="white"/>
</clipPath>
</defs>
</svg>
