<svg width="80" height="80" viewBox="0 0 80 80" fill="none" xmlns="http://www.w3.org/2000/svg">
<g clip-path="url(#clip0)">
<path d="M68.1589 68.1618H56.3054V49.5984C56.3054 45.1718 56.2264 39.4734 50.1404 39.4734C43.9667 39.4734 43.022 44.2965 43.022 49.2762V68.1606H31.1689V29.9868H42.5479V35.2037H42.7073C43.8461 33.2565 45.4917 31.6547 47.4688 30.5688C49.446 29.4828 51.6806 28.9535 53.9348 29.0371C65.9489 29.0371 68.1639 36.9396 68.1639 47.2203L68.1589 68.1618ZM17.7939 24.769C13.9948 24.7696 10.9145 21.6903 10.9139 17.8912C10.9132 14.0921 13.9923 11.0118 17.7914 11.0112C21.5904 11.0103 24.6707 14.0896 24.6714 17.8887C24.6717 19.7131 23.9473 21.4629 22.6575 22.7532C21.3678 24.0435 19.6183 24.7686 17.7939 24.769ZM23.7207 68.1621H11.8548V29.9868H23.7204V68.1618L23.7207 68.1621ZM74.0682 0.00277071H5.89855C2.67668 -0.0334793 0.0344922 2.54746 -0.00488281 5.76933V74.2234C0.0332422 77.4468 2.67512 80.0303 5.89824 79.9965H74.0682C77.2982 80.0365 79.9504 77.4531 79.9951 74.2234V5.76402C79.9492 2.5359 77.2967 -0.0447293 74.0682 -0.00254179" fill="#0A66C2"/>
</g>
<defs>
<clipPath id="clip0">
<rect width="80" height="80" fill="white"/>
</clipPath>
</defs>
</svg>
